<svg xmlns="http://www.w3.org/2000/svg" width="21" height="24" viewBox="0 0 21 24">
  <path id="noun-shield-5196407" d="M155.554,73.17l4.329,2.809h0a2.039,2.039,0,0,0,2.223,0l4.329-2.808a11.044,11.044,0,0,0,5.062-9.3V57.416a2.052,2.052,0,0,0-1.75-2.031,19.985,19.985,0,0,1-7.683-2.774,2.016,2.016,0,0,0-2.127,0,20.017,20.017,0,0,1-7.69,2.775,2.052,2.052,0,0,0-1.75,2.031v6.451h0a11.043,11.043,0,0,0,5.057,9.3ZM156.966,63.1h0a.92.92,0,0,1,1.3,0l1.6,1.605,3.855-3.863a.922.922,0,0,1,1.3,1.305l-4.506,4.515a.919.919,0,0,1-1.3,0L156.967,64.4a.924.924,0,0,1,0-1.305Z" transform="translate(-150.497 -52.308)" fill="#45a03f"/>
</svg>
