<svg id="Group_24166" data-name="Group 24166" xmlns="http://www.w3.org/2000/svg" width="24" height="24" viewBox="0 0 24 24">
  <path id="Box" d="M0,0H24V24H0Z" fill="none"/>
  <g id="Group_24145" data-name="Group 24145" transform="translate(4 4)">
    <path id="Path_7767" data-name="Path 7767" d="M15.022,10.334,9.978,15.378" transform="translate(-4.557 -4.715)" fill="none" stroke="#3e3e3e" stroke-linecap="round" stroke-linejoin="round" stroke-width="1"/>
    <path id="Path_7768" data-name="Path 7768" d="M9.667,9.569a1.1,1.1,0,1,0,1.1,1.1A1.1,1.1,0,0,0,9.667,9.569Z" transform="translate(-4.081 -4.53)" fill="none" stroke="#3e3e3e" stroke-linecap="round" stroke-linejoin="round" stroke-width="1"/>
    <path id="Path_7769" data-name="Path 7769" d="M18.347,16.266a1.1,1.1,0,1,0,1.1,1.1A1.1,1.1,0,0,0,18.347,16.266Z" transform="translate(-7.934 -7.506)" fill="none" stroke="#3e3e3e" stroke-linecap="round" stroke-linejoin="round" stroke-width="1"/>
    <path id="Path_7770" data-name="Path 7770" d="M16.5,8.509a2.843,2.843,0,0,1-.8,2.038,2.179,2.179,0,0,0-.642,1.487,3.183,3.183,0,0,1-3.064,3.014,2.049,2.049,0,0,0-1.358.564,3,3,0,0,1-4.251,0,2.028,2.028,0,0,0-1.355-.57,3.2,3.2,0,0,1-3.079-3.1A1.845,1.845,0,0,0,1.4,10.626a2.976,2.976,0,0,1-.061-4.2,2.205,2.205,0,0,0,.62-1.466,3.2,3.2,0,0,1,3.129-3.02,1.811,1.811,0,0,0,1.288-.549,2.991,2.991,0,0,1,4.156-.106,2.508,2.508,0,0,0,1.579.671,3.173,3.173,0,0,1,2.957,3.12,2.01,2.01,0,0,0,.63,1.359A2.894,2.894,0,0,1,16.5,8.509Z" transform="translate(-0.5 -0.5)" fill="none" stroke="#3e3e3e" stroke-miterlimit="10" stroke-width="1"/>
  </g>
</svg>
